<mxfile host="app.diagrams.net" modified="2024-01-14T19:13:16.448Z" agent="Mozilla/5.0 (Windows NT 10.0; Win64; x64) AppleWebKit/537.36 (KHTML, like Gecko) Chrome/120.0.0.0 Safari/537.36" etag="NvlfBg052O0K5nmZKXBf" version="22.1.16" type="google">
  <diagram name="Page-1" id="vj3IRSXa3nJeRotENkv3">
    <mxGraphModel grid="1" page="1" gridSize="10" guides="1" tooltips="1" connect="1" arrows="1" fold="1" pageScale="1" pageWidth="850" pageHeight="1100" math="0" shadow="0">
      <root>
        <mxCell id="0" />
        <mxCell id="1" parent="0" />
        <mxCell id="PsDFhm2bD0DmEI9ooElX-1" value="PRODUCT" style="rounded=0;whiteSpace=wrap;html=1;" vertex="1" parent="1">
          <mxGeometry x="360" y="260" width="160" height="70" as="geometry" />
        </mxCell>
        <mxCell id="PsDFhm2bD0DmEI9ooElX-2" value="&lt;u&gt;id&lt;/u&gt;" style="ellipse;whiteSpace=wrap;html=1;" vertex="1" parent="1">
          <mxGeometry x="280" y="175" width="70" height="50" as="geometry" />
        </mxCell>
        <mxCell id="PsDFhm2bD0DmEI9ooElX-5" value="name" style="ellipse;whiteSpace=wrap;html=1;" vertex="1" parent="1">
          <mxGeometry x="250" y="240" width="70" height="50" as="geometry" />
        </mxCell>
        <mxCell id="PsDFhm2bD0DmEI9ooElX-6" value="manufacturing_date&lt;br&gt;" style="ellipse;whiteSpace=wrap;html=1;" vertex="1" parent="1">
          <mxGeometry x="375" y="370" width="130" height="50" as="geometry" />
        </mxCell>
        <mxCell id="PsDFhm2bD0DmEI9ooElX-8" value="shelf_life" style="ellipse;whiteSpace=wrap;html=1;" vertex="1" parent="1">
          <mxGeometry x="280" y="340" width="70" height="50" as="geometry" />
        </mxCell>
        <mxCell id="PsDFhm2bD0DmEI9ooElX-9" value="composition" style="ellipse;whiteSpace=wrap;html=1;" vertex="1" parent="1">
          <mxGeometry x="540" y="340" width="70" height="50" as="geometry" />
        </mxCell>
        <mxCell id="PsDFhm2bD0DmEI9ooElX-10" value="place_of_origin" style="ellipse;whiteSpace=wrap;html=1;" vertex="1" parent="1">
          <mxGeometry x="550" y="200" width="90" height="50" as="geometry" />
        </mxCell>
        <mxCell id="PsDFhm2bD0DmEI9ooElX-11" value="manufacturer_name" style="ellipse;whiteSpace=wrap;html=1;" vertex="1" parent="1">
          <mxGeometry x="560" y="260" width="120" height="50" as="geometry" />
        </mxCell>
        <mxCell id="PsDFhm2bD0DmEI9ooElX-12" value="importer_name" style="ellipse;whiteSpace=wrap;html=1;" vertex="1" parent="1">
          <mxGeometry x="360" y="170" width="100" height="50" as="geometry" />
        </mxCell>
        <mxCell id="PsDFhm2bD0DmEI9ooElX-13" style="edgeStyle=orthogonalEdgeStyle;rounded=0;orthogonalLoop=1;jettySize=auto;html=1;exitX=0.5;exitY=1;exitDx=0;exitDy=0;" edge="1" parent="1" source="PsDFhm2bD0DmEI9ooElX-12" target="PsDFhm2bD0DmEI9ooElX-12">
          <mxGeometry relative="1" as="geometry" />
        </mxCell>
        <mxCell id="PsDFhm2bD0DmEI9ooElX-14" value="" style="endArrow=none;html=1;rounded=0;exitX=1;exitY=0.5;exitDx=0;exitDy=0;entryX=0.003;entryY=0.357;entryDx=0;entryDy=0;entryPerimeter=0;" edge="1" parent="1" source="PsDFhm2bD0DmEI9ooElX-5" target="PsDFhm2bD0DmEI9ooElX-1">
          <mxGeometry width="50" height="50" relative="1" as="geometry">
            <mxPoint x="400" y="320" as="sourcePoint" />
            <mxPoint x="450" y="270" as="targetPoint" />
          </mxGeometry>
        </mxCell>
        <mxCell id="PsDFhm2bD0DmEI9ooElX-15" value="" style="endArrow=none;html=1;rounded=0;exitX=0.726;exitY=0.036;exitDx=0;exitDy=0;exitPerimeter=0;entryX=0;entryY=1;entryDx=0;entryDy=0;" edge="1" parent="1" source="PsDFhm2bD0DmEI9ooElX-8" target="PsDFhm2bD0DmEI9ooElX-1">
          <mxGeometry width="50" height="50" relative="1" as="geometry">
            <mxPoint x="400" y="320" as="sourcePoint" />
            <mxPoint x="450" y="270" as="targetPoint" />
          </mxGeometry>
        </mxCell>
        <mxCell id="PsDFhm2bD0DmEI9ooElX-16" value="" style="endArrow=none;html=1;rounded=0;exitX=0.5;exitY=0;exitDx=0;exitDy=0;entryX=0.5;entryY=1;entryDx=0;entryDy=0;" edge="1" parent="1" source="PsDFhm2bD0DmEI9ooElX-6" target="PsDFhm2bD0DmEI9ooElX-1">
          <mxGeometry width="50" height="50" relative="1" as="geometry">
            <mxPoint x="430" y="350" as="sourcePoint" />
            <mxPoint x="459" y="338" as="targetPoint" />
          </mxGeometry>
        </mxCell>
        <mxCell id="PsDFhm2bD0DmEI9ooElX-17" value="" style="endArrow=none;html=1;rounded=0;exitX=1;exitY=1;exitDx=0;exitDy=0;entryX=0;entryY=0;entryDx=0;entryDy=0;" edge="1" parent="1" source="PsDFhm2bD0DmEI9ooElX-1" target="PsDFhm2bD0DmEI9ooElX-9">
          <mxGeometry width="50" height="50" relative="1" as="geometry">
            <mxPoint x="530" y="350" as="sourcePoint" />
            <mxPoint x="559" y="338" as="targetPoint" />
          </mxGeometry>
        </mxCell>
        <mxCell id="PsDFhm2bD0DmEI9ooElX-19" value="" style="endArrow=none;html=1;rounded=0;exitX=1;exitY=0.5;exitDx=0;exitDy=0;entryX=0;entryY=0.5;entryDx=0;entryDy=0;" edge="1" parent="1" source="PsDFhm2bD0DmEI9ooElX-1" target="PsDFhm2bD0DmEI9ooElX-11">
          <mxGeometry width="50" height="50" relative="1" as="geometry">
            <mxPoint x="550" y="310" as="sourcePoint" />
            <mxPoint x="579" y="298" as="targetPoint" />
          </mxGeometry>
        </mxCell>
        <mxCell id="PsDFhm2bD0DmEI9ooElX-20" value="" style="endArrow=none;html=1;rounded=0;exitX=0.928;exitY=-0.02;exitDx=0;exitDy=0;exitPerimeter=0;entryX=0.071;entryY=0.732;entryDx=0;entryDy=0;entryPerimeter=0;" edge="1" parent="1" source="PsDFhm2bD0DmEI9ooElX-1" target="PsDFhm2bD0DmEI9ooElX-10">
          <mxGeometry width="50" height="50" relative="1" as="geometry">
            <mxPoint x="500" y="230" as="sourcePoint" />
            <mxPoint x="529" y="218" as="targetPoint" />
          </mxGeometry>
        </mxCell>
        <mxCell id="PsDFhm2bD0DmEI9ooElX-21" value="" style="endArrow=none;html=1;rounded=0;exitX=0.298;exitY=0.014;exitDx=0;exitDy=0;exitPerimeter=0;entryX=0.432;entryY=1.004;entryDx=0;entryDy=0;entryPerimeter=0;" edge="1" parent="1" source="PsDFhm2bD0DmEI9ooElX-1" target="PsDFhm2bD0DmEI9ooElX-12">
          <mxGeometry width="50" height="50" relative="1" as="geometry">
            <mxPoint x="440" y="230" as="sourcePoint" />
            <mxPoint x="469" y="218" as="targetPoint" />
          </mxGeometry>
        </mxCell>
        <mxCell id="PsDFhm2bD0DmEI9ooElX-22" value="" style="endArrow=none;html=1;rounded=0;exitX=1;exitY=1;exitDx=0;exitDy=0;entryX=0.058;entryY=-0.02;entryDx=0;entryDy=0;entryPerimeter=0;" edge="1" parent="1" source="PsDFhm2bD0DmEI9ooElX-2" target="PsDFhm2bD0DmEI9ooElX-1">
          <mxGeometry width="50" height="50" relative="1" as="geometry">
            <mxPoint x="360" y="240" as="sourcePoint" />
            <mxPoint x="389" y="228" as="targetPoint" />
          </mxGeometry>
        </mxCell>
        <mxCell id="PsDFhm2bD0DmEI9ooElX-23" value="type" style="ellipse;whiteSpace=wrap;html=1;" vertex="1" parent="1">
          <mxGeometry x="480" y="170" width="70" height="50" as="geometry" />
        </mxCell>
        <mxCell id="PsDFhm2bD0DmEI9ooElX-25" value="" style="endArrow=none;html=1;rounded=0;exitX=0.75;exitY=0;exitDx=0;exitDy=0;" edge="1" parent="1" source="PsDFhm2bD0DmEI9ooElX-1" target="PsDFhm2bD0DmEI9ooElX-23">
          <mxGeometry width="50" height="50" relative="1" as="geometry">
            <mxPoint x="480" y="240" as="sourcePoint" />
            <mxPoint x="475" y="199" as="targetPoint" />
          </mxGeometry>
        </mxCell>
        <mxCell id="PsDFhm2bD0DmEI9ooElX-26" value="&lt;div&gt;Can be:&lt;/div&gt;&lt;div&gt;• Food products&lt;/div&gt;&lt;div&gt;• Drinks&amp;nbsp;&lt;/div&gt;&lt;div&gt;• Tobacco&amp;nbsp;&lt;/div&gt;&lt;div&gt;• Milk and dairy products&lt;/div&gt;&lt;div&gt;• Confectionery products&lt;/div&gt;&lt;div&gt;• Cosmetics&lt;/div&gt;&lt;div&gt;• Household items&lt;/div&gt;" style="shape=note;whiteSpace=wrap;html=1;backgroundOutline=1;darkOpacity=0.05;align=left;" vertex="1" parent="1">
          <mxGeometry x="530" y="60" width="142" height="120" as="geometry" />
        </mxCell>
        <mxCell id="PsDFhm2bD0DmEI9ooElX-27" value="TOBACCO" style="rounded=0;whiteSpace=wrap;html=1;" vertex="1" parent="1">
          <mxGeometry y="580" width="120" height="60" as="geometry" />
        </mxCell>
        <mxCell id="PsDFhm2bD0DmEI9ooElX-28" value="&lt;u&gt;id&lt;/u&gt;" style="ellipse;whiteSpace=wrap;html=1;" vertex="1" parent="1">
          <mxGeometry x="60" y="500" width="70" height="40" as="geometry" />
        </mxCell>
        <mxCell id="PsDFhm2bD0DmEI9ooElX-29" value="nicotin" style="ellipse;whiteSpace=wrap;html=1;" vertex="1" parent="1">
          <mxGeometry x="-130" y="600" width="70" height="40" as="geometry" />
        </mxCell>
        <mxCell id="PsDFhm2bD0DmEI9ooElX-30" value="tar" style="ellipse;whiteSpace=wrap;html=1;" vertex="1" parent="1">
          <mxGeometry x="160" y="590" width="70" height="40" as="geometry" />
        </mxCell>
        <mxCell id="PsDFhm2bD0DmEI9ooElX-31" value="carbon_monoxide" style="ellipse;whiteSpace=wrap;html=1;" vertex="1" parent="1">
          <mxGeometry x="5" y="680" width="110" height="40" as="geometry" />
        </mxCell>
        <mxCell id="PsDFhm2bD0DmEI9ooElX-32" value="" style="endArrow=none;html=1;rounded=0;exitX=0.4;exitY=0.995;exitDx=0;exitDy=0;exitPerimeter=0;entryX=0.75;entryY=0;entryDx=0;entryDy=0;" edge="1" parent="1" source="PsDFhm2bD0DmEI9ooElX-28" target="PsDFhm2bD0DmEI9ooElX-27">
          <mxGeometry width="50" height="50" relative="1" as="geometry">
            <mxPoint x="400" y="620" as="sourcePoint" />
            <mxPoint x="150" y="580" as="targetPoint" />
          </mxGeometry>
        </mxCell>
        <mxCell id="PsDFhm2bD0DmEI9ooElX-33" value="" style="endArrow=none;html=1;rounded=0;entryX=1;entryY=0.5;entryDx=0;entryDy=0;exitX=0;exitY=0.5;exitDx=0;exitDy=0;" edge="1" parent="1" source="PsDFhm2bD0DmEI9ooElX-30" target="PsDFhm2bD0DmEI9ooElX-27">
          <mxGeometry width="50" height="50" relative="1" as="geometry">
            <mxPoint x="230" y="610" as="sourcePoint" />
            <mxPoint x="232" y="630" as="targetPoint" />
          </mxGeometry>
        </mxCell>
        <mxCell id="PsDFhm2bD0DmEI9ooElX-34" value="" style="endArrow=none;html=1;rounded=0;exitX=0.5;exitY=1;exitDx=0;exitDy=0;entryX=0.5;entryY=0;entryDx=0;entryDy=0;" edge="1" parent="1" source="PsDFhm2bD0DmEI9ooElX-27" target="PsDFhm2bD0DmEI9ooElX-31">
          <mxGeometry width="50" height="50" relative="1" as="geometry">
            <mxPoint x="140" y="650" as="sourcePoint" />
            <mxPoint x="142" y="680" as="targetPoint" />
          </mxGeometry>
        </mxCell>
        <mxCell id="PsDFhm2bD0DmEI9ooElX-35" value="" style="endArrow=none;html=1;rounded=0;exitX=1;exitY=0.5;exitDx=0;exitDy=0;entryX=0;entryY=0.75;entryDx=0;entryDy=0;" edge="1" parent="1" source="PsDFhm2bD0DmEI9ooElX-29" target="PsDFhm2bD0DmEI9ooElX-27">
          <mxGeometry width="50" height="50" relative="1" as="geometry">
            <mxPoint x="70" y="640" as="sourcePoint" />
            <mxPoint y="620" as="targetPoint" />
          </mxGeometry>
        </mxCell>
        <mxCell id="PsDFhm2bD0DmEI9ooElX-36" value="DRINK" style="rounded=0;whiteSpace=wrap;html=1;" vertex="1" parent="1">
          <mxGeometry x="400" y="570" width="120" height="60" as="geometry" />
        </mxCell>
        <mxCell id="PsDFhm2bD0DmEI9ooElX-37" value="&lt;u&gt;id&lt;/u&gt;" style="ellipse;whiteSpace=wrap;html=1;" vertex="1" parent="1">
          <mxGeometry x="300" y="580" width="60" height="40" as="geometry" />
        </mxCell>
        <mxCell id="PsDFhm2bD0DmEI9ooElX-38" value="type" style="ellipse;whiteSpace=wrap;html=1;" vertex="1" parent="1">
          <mxGeometry x="566" y="580" width="60" height="40" as="geometry" />
        </mxCell>
        <mxCell id="PsDFhm2bD0DmEI9ooElX-39" value="&lt;span style=&quot;background-color: initial;&quot;&gt;Can be:&lt;/span&gt;&lt;br&gt;&lt;span style=&quot;background-color: initial;&quot;&gt;*alcoholic&lt;/span&gt;&lt;br&gt;&lt;span style=&quot;background-color: initial;&quot;&gt;*non-alcoholic&lt;/span&gt;&lt;br&gt;&lt;span style=&quot;background-color: initial;&quot;&gt;*carbonated&lt;/span&gt;&lt;br&gt;&lt;span style=&quot;background-color: initial;&quot;&gt;*non-carbonated&lt;/span&gt;" style="shape=note;whiteSpace=wrap;html=1;backgroundOutline=1;darkOpacity=0.05;align=left;" vertex="1" parent="1">
          <mxGeometry x="610" y="500" width="100" height="90" as="geometry" />
        </mxCell>
        <mxCell id="PsDFhm2bD0DmEI9ooElX-40" value="type" style="ellipse;whiteSpace=wrap;html=1;" vertex="1" parent="1">
          <mxGeometry x="-65" y="510" width="70" height="40" as="geometry" />
        </mxCell>
        <mxCell id="PsDFhm2bD0DmEI9ooElX-41" value="Can be:&lt;br&gt;*cigarettes per piece&lt;br&gt;*box&lt;br&gt;*dry tobacco" style="shape=note;whiteSpace=wrap;html=1;backgroundOutline=1;darkOpacity=0.05;align=left;" vertex="1" parent="1">
          <mxGeometry x="-170" y="430" width="120" height="90" as="geometry" />
        </mxCell>
        <mxCell id="PsDFhm2bD0DmEI9ooElX-42" value="" style="endArrow=none;html=1;rounded=0;entryX=0.13;entryY=0.003;entryDx=0;entryDy=0;entryPerimeter=0;" edge="1" parent="1" source="PsDFhm2bD0DmEI9ooElX-40" target="PsDFhm2bD0DmEI9ooElX-27">
          <mxGeometry width="50" height="50" relative="1" as="geometry">
            <mxPoint x="80" y="560" as="sourcePoint" />
            <mxPoint x="450" y="570" as="targetPoint" />
          </mxGeometry>
        </mxCell>
        <mxCell id="PsDFhm2bD0DmEI9ooElX-43" value="" style="endArrow=none;html=1;rounded=0;entryX=0;entryY=0.5;entryDx=0;entryDy=0;exitX=1;exitY=0.5;exitDx=0;exitDy=0;" edge="1" parent="1" source="PsDFhm2bD0DmEI9ooElX-37" target="PsDFhm2bD0DmEI9ooElX-36">
          <mxGeometry width="50" height="50" relative="1" as="geometry">
            <mxPoint x="440" y="570" as="sourcePoint" />
            <mxPoint x="466" y="590" as="targetPoint" />
          </mxGeometry>
        </mxCell>
        <mxCell id="PsDFhm2bD0DmEI9ooElX-44" value="" style="endArrow=none;html=1;rounded=0;exitX=1;exitY=0.5;exitDx=0;exitDy=0;" edge="1" parent="1" source="PsDFhm2bD0DmEI9ooElX-36" target="PsDFhm2bD0DmEI9ooElX-38">
          <mxGeometry width="50" height="50" relative="1" as="geometry">
            <mxPoint x="590" y="580" as="sourcePoint" />
            <mxPoint x="610" y="600" as="targetPoint" />
          </mxGeometry>
        </mxCell>
        <mxCell id="PsDFhm2bD0DmEI9ooElX-45" value="ALCOHOL" style="rounded=0;whiteSpace=wrap;html=1;" vertex="1" parent="1">
          <mxGeometry x="400" y="760" width="120" height="60" as="geometry" />
        </mxCell>
        <mxCell id="PsDFhm2bD0DmEI9ooElX-46" value="&lt;u&gt;id&lt;/u&gt;" style="ellipse;whiteSpace=wrap;html=1;" vertex="1" parent="1">
          <mxGeometry x="290" y="770" width="70" height="40" as="geometry" />
        </mxCell>
        <mxCell id="PsDFhm2bD0DmEI9ooElX-47" value="strength %" style="ellipse;whiteSpace=wrap;html=1;" vertex="1" parent="1">
          <mxGeometry x="566" y="770" width="70" height="40" as="geometry" />
        </mxCell>
        <mxCell id="PsDFhm2bD0DmEI9ooElX-48" value="" style="endArrow=none;html=1;rounded=0;exitX=1;exitY=0.5;exitDx=0;exitDy=0;entryX=0;entryY=0.5;entryDx=0;entryDy=0;" edge="1" parent="1" source="PsDFhm2bD0DmEI9ooElX-46" target="PsDFhm2bD0DmEI9ooElX-45">
          <mxGeometry width="50" height="50" relative="1" as="geometry">
            <mxPoint x="400" y="720" as="sourcePoint" />
            <mxPoint x="450" y="670" as="targetPoint" />
          </mxGeometry>
        </mxCell>
        <mxCell id="PsDFhm2bD0DmEI9ooElX-49" value="" style="endArrow=none;html=1;rounded=0;exitX=1;exitY=0.5;exitDx=0;exitDy=0;" edge="1" parent="1" source="PsDFhm2bD0DmEI9ooElX-45" target="PsDFhm2bD0DmEI9ooElX-47">
          <mxGeometry width="50" height="50" relative="1" as="geometry">
            <mxPoint x="600" y="790" as="sourcePoint" />
            <mxPoint x="630" y="790" as="targetPoint" />
          </mxGeometry>
        </mxCell>
        <mxCell id="PsDFhm2bD0DmEI9ooElX-53" value="HAUSEHOLD" style="rounded=0;whiteSpace=wrap;html=1;" vertex="1" parent="1">
          <mxGeometry x="830" y="570" width="120" height="60" as="geometry" />
        </mxCell>
        <mxCell id="PsDFhm2bD0DmEI9ooElX-54" value="&lt;u&gt;id&lt;/u&gt;" style="ellipse;whiteSpace=wrap;html=1;" vertex="1" parent="1">
          <mxGeometry x="730" y="580" width="70" height="40" as="geometry" />
        </mxCell>
        <mxCell id="PsDFhm2bD0DmEI9ooElX-55" value="type" style="ellipse;whiteSpace=wrap;html=1;" vertex="1" parent="1">
          <mxGeometry x="995" y="580" width="70" height="40" as="geometry" />
        </mxCell>
        <mxCell id="PsDFhm2bD0DmEI9ooElX-56" value="&lt;div style=&quot;text-align: left;&quot;&gt;&lt;span style=&quot;background-color: initial;&quot;&gt;Can be:&lt;/span&gt;&lt;/div&gt;&lt;div style=&quot;text-align: left;&quot;&gt;&lt;span style=&quot;background-color: initial;&quot;&gt;*cleaning agents&lt;/span&gt;&lt;/div&gt;&lt;div style=&quot;text-align: left;&quot;&gt;&lt;span style=&quot;background-color: initial;&quot;&gt;*kitchen utensils&lt;/span&gt;&lt;/div&gt;" style="shape=note;whiteSpace=wrap;html=1;backgroundOutline=1;darkOpacity=0.05;" vertex="1" parent="1">
          <mxGeometry x="1050" y="605" width="100" height="80" as="geometry" />
        </mxCell>
        <mxCell id="PsDFhm2bD0DmEI9ooElX-57" value="" style="endArrow=none;html=1;rounded=0;exitX=1;exitY=0.5;exitDx=0;exitDy=0;entryX=0;entryY=0.5;entryDx=0;entryDy=0;" edge="1" parent="1" source="PsDFhm2bD0DmEI9ooElX-54" target="PsDFhm2bD0DmEI9ooElX-53">
          <mxGeometry width="50" height="50" relative="1" as="geometry">
            <mxPoint x="900" y="620" as="sourcePoint" />
            <mxPoint x="950" y="570" as="targetPoint" />
          </mxGeometry>
        </mxCell>
        <mxCell id="PsDFhm2bD0DmEI9ooElX-58" value="" style="endArrow=none;html=1;rounded=0;exitX=1;exitY=0.5;exitDx=0;exitDy=0;entryX=0;entryY=0.5;entryDx=0;entryDy=0;" edge="1" parent="1" source="PsDFhm2bD0DmEI9ooElX-53" target="PsDFhm2bD0DmEI9ooElX-55">
          <mxGeometry width="50" height="50" relative="1" as="geometry">
            <mxPoint x="1040" y="590" as="sourcePoint" />
            <mxPoint x="1080" y="590" as="targetPoint" />
          </mxGeometry>
        </mxCell>
        <mxCell id="PsDFhm2bD0DmEI9ooElX-59" value="is" style="rhombus;whiteSpace=wrap;html=1;" vertex="1" parent="1">
          <mxGeometry x="480" y="460" width="60" height="40" as="geometry" />
        </mxCell>
        <mxCell id="PsDFhm2bD0DmEI9ooElX-60" value="" style="endArrow=none;html=1;rounded=0;exitX=0.633;exitY=0.023;exitDx=0;exitDy=0;exitPerimeter=0;entryX=0.5;entryY=1;entryDx=0;entryDy=0;" edge="1" parent="1" source="PsDFhm2bD0DmEI9ooElX-36" target="PsDFhm2bD0DmEI9ooElX-59">
          <mxGeometry width="50" height="50" relative="1" as="geometry">
            <mxPoint x="390" y="620" as="sourcePoint" />
            <mxPoint x="480" y="510" as="targetPoint" />
          </mxGeometry>
        </mxCell>
        <mxCell id="PsDFhm2bD0DmEI9ooElX-61" value="" style="endArrow=none;html=1;rounded=0;exitX=0.68;exitY=-0.003;exitDx=0;exitDy=0;exitPerimeter=0;entryX=1;entryY=1;entryDx=0;entryDy=0;" edge="1" parent="1" source="PsDFhm2bD0DmEI9ooElX-36" target="PsDFhm2bD0DmEI9ooElX-59">
          <mxGeometry width="50" height="50" relative="1" as="geometry">
            <mxPoint x="480" y="530" as="sourcePoint" />
            <mxPoint x="482" y="510" as="targetPoint" />
          </mxGeometry>
        </mxCell>
        <mxCell id="PsDFhm2bD0DmEI9ooElX-62" value="" style="endArrow=none;html=1;rounded=0;exitX=1;exitY=0;exitDx=0;exitDy=0;entryX=0.84;entryY=0.997;entryDx=0;entryDy=0;entryPerimeter=0;" edge="1" parent="1" source="PsDFhm2bD0DmEI9ooElX-59" target="PsDFhm2bD0DmEI9ooElX-1">
          <mxGeometry width="50" height="50" relative="1" as="geometry">
            <mxPoint x="510" y="430" as="sourcePoint" />
            <mxPoint x="524" y="369" as="targetPoint" />
          </mxGeometry>
        </mxCell>
        <mxCell id="PsDFhm2bD0DmEI9ooElX-63" value="1" style="text;html=1;align=center;verticalAlign=middle;resizable=0;points=[];autosize=1;strokeColor=none;fillColor=none;" vertex="1" parent="1">
          <mxGeometry x="495" y="340" width="30" height="30" as="geometry" />
        </mxCell>
        <mxCell id="PsDFhm2bD0DmEI9ooElX-64" value="1" style="text;html=1;align=center;verticalAlign=middle;resizable=0;points=[];autosize=1;strokeColor=none;fillColor=none;" vertex="1" parent="1">
          <mxGeometry x="490" y="540" width="30" height="30" as="geometry" />
        </mxCell>
        <mxCell id="PsDFhm2bD0DmEI9ooElX-65" value="is" style="rhombus;whiteSpace=wrap;html=1;" vertex="1" parent="1">
          <mxGeometry x="200" y="460" width="60" height="40" as="geometry" />
        </mxCell>
        <mxCell id="PsDFhm2bD0DmEI9ooElX-66" value="" style="endArrow=none;html=1;rounded=0;exitX=1;exitY=0;exitDx=0;exitDy=0;entryX=0.5;entryY=1;entryDx=0;entryDy=0;" edge="1" parent="1" source="PsDFhm2bD0DmEI9ooElX-27" target="PsDFhm2bD0DmEI9ooElX-65">
          <mxGeometry width="50" height="50" relative="1" as="geometry">
            <mxPoint x="280" y="620" as="sourcePoint" />
            <mxPoint x="330" y="570" as="targetPoint" />
          </mxGeometry>
        </mxCell>
        <mxCell id="PsDFhm2bD0DmEI9ooElX-67" value="" style="endArrow=none;html=1;rounded=0;entryX=0.373;entryY=0.905;entryDx=0;entryDy=0;exitX=0.873;exitY=-0.01;exitDx=0;exitDy=0;exitPerimeter=0;entryPerimeter=0;" edge="1" parent="1" source="PsDFhm2bD0DmEI9ooElX-27" target="PsDFhm2bD0DmEI9ooElX-65">
          <mxGeometry width="50" height="50" relative="1" as="geometry">
            <mxPoint x="106" y="579" as="sourcePoint" />
            <mxPoint x="350" y="470" as="targetPoint" />
          </mxGeometry>
        </mxCell>
        <mxCell id="PsDFhm2bD0DmEI9ooElX-68" value="" style="endArrow=none;html=1;rounded=0;exitX=1;exitY=0;exitDx=0;exitDy=0;entryX=0.25;entryY=1;entryDx=0;entryDy=0;" edge="1" parent="1" source="PsDFhm2bD0DmEI9ooElX-65" target="PsDFhm2bD0DmEI9ooElX-1">
          <mxGeometry width="50" height="50" relative="1" as="geometry">
            <mxPoint x="310" y="460" as="sourcePoint" />
            <mxPoint x="440" y="380" as="targetPoint" />
          </mxGeometry>
        </mxCell>
        <mxCell id="PsDFhm2bD0DmEI9ooElX-69" value="1" style="text;html=1;align=center;verticalAlign=middle;resizable=0;points=[];autosize=1;strokeColor=none;fillColor=none;" vertex="1" parent="1">
          <mxGeometry x="120" y="570" width="30" height="30" as="geometry" />
        </mxCell>
        <mxCell id="PsDFhm2bD0DmEI9ooElX-70" value="1" style="text;html=1;align=center;verticalAlign=middle;resizable=0;points=[];autosize=1;strokeColor=none;fillColor=none;" vertex="1" parent="1">
          <mxGeometry x="380" y="330" width="30" height="30" as="geometry" />
        </mxCell>
        <mxCell id="PsDFhm2bD0DmEI9ooElX-71" value="is" style="rhombus;whiteSpace=wrap;html=1;" vertex="1" parent="1">
          <mxGeometry x="430" y="680" width="60" height="40" as="geometry" />
        </mxCell>
        <mxCell id="PsDFhm2bD0DmEI9ooElX-72" value="" style="endArrow=none;html=1;rounded=0;exitX=0.5;exitY=0;exitDx=0;exitDy=0;entryX=0.5;entryY=1;entryDx=0;entryDy=0;" edge="1" parent="1" source="PsDFhm2bD0DmEI9ooElX-71" target="PsDFhm2bD0DmEI9ooElX-36">
          <mxGeometry width="50" height="50" relative="1" as="geometry">
            <mxPoint x="350" y="620" as="sourcePoint" />
            <mxPoint x="400" y="570" as="targetPoint" />
          </mxGeometry>
        </mxCell>
        <mxCell id="PsDFhm2bD0DmEI9ooElX-73" value="" style="endArrow=none;html=1;rounded=0;exitX=0.573;exitY=0.017;exitDx=0;exitDy=0;entryX=0.62;entryY=0.925;entryDx=0;entryDy=0;exitPerimeter=0;entryPerimeter=0;" edge="1" parent="1" source="PsDFhm2bD0DmEI9ooElX-45" target="PsDFhm2bD0DmEI9ooElX-71">
          <mxGeometry width="50" height="50" relative="1" as="geometry">
            <mxPoint x="460" y="740" as="sourcePoint" />
            <mxPoint x="460" y="690" as="targetPoint" />
          </mxGeometry>
        </mxCell>
        <mxCell id="PsDFhm2bD0DmEI9ooElX-74" value="" style="endArrow=none;html=1;rounded=0;exitX=0.5;exitY=0;exitDx=0;exitDy=0;entryX=0.5;entryY=1;entryDx=0;entryDy=0;" edge="1" parent="1" source="PsDFhm2bD0DmEI9ooElX-45" target="PsDFhm2bD0DmEI9ooElX-71">
          <mxGeometry width="50" height="50" relative="1" as="geometry">
            <mxPoint x="450" y="740" as="sourcePoint" />
            <mxPoint x="448" y="696" as="targetPoint" />
          </mxGeometry>
        </mxCell>
        <mxCell id="PsDFhm2bD0DmEI9ooElX-75" value="1" style="text;html=1;align=center;verticalAlign=middle;resizable=0;points=[];autosize=1;strokeColor=none;fillColor=none;" vertex="1" parent="1">
          <mxGeometry x="465" y="730" width="30" height="30" as="geometry" />
        </mxCell>
        <mxCell id="PsDFhm2bD0DmEI9ooElX-76" value="1" style="text;html=1;align=center;verticalAlign=middle;resizable=0;points=[];autosize=1;strokeColor=none;fillColor=none;" vertex="1" parent="1">
          <mxGeometry x="460" y="630" width="30" height="30" as="geometry" />
        </mxCell>
        <mxCell id="PsDFhm2bD0DmEI9ooElX-77" value="is" style="rhombus;whiteSpace=wrap;html=1;" vertex="1" parent="1">
          <mxGeometry x="760" y="435" width="60" height="40" as="geometry" />
        </mxCell>
        <mxCell id="PsDFhm2bD0DmEI9ooElX-78" value="" style="endArrow=none;html=1;rounded=0;exitX=1;exitY=0.75;exitDx=0;exitDy=0;entryX=0.5;entryY=0;entryDx=0;entryDy=0;" edge="1" parent="1" source="PsDFhm2bD0DmEI9ooElX-1" target="PsDFhm2bD0DmEI9ooElX-77">
          <mxGeometry width="50" height="50" relative="1" as="geometry">
            <mxPoint x="870" y="520" as="sourcePoint" />
            <mxPoint x="920" y="470" as="targetPoint" />
          </mxGeometry>
        </mxCell>
        <mxCell id="PsDFhm2bD0DmEI9ooElX-79" value="" style="endArrow=none;html=1;rounded=0;exitX=0.157;exitY=-0.03;exitDx=0;exitDy=0;exitPerimeter=0;entryX=0.5;entryY=1;entryDx=0;entryDy=0;" edge="1" parent="1" source="PsDFhm2bD0DmEI9ooElX-53" target="PsDFhm2bD0DmEI9ooElX-77">
          <mxGeometry width="50" height="50" relative="1" as="geometry">
            <mxPoint x="870" y="520" as="sourcePoint" />
            <mxPoint x="920" y="470" as="targetPoint" />
          </mxGeometry>
        </mxCell>
        <mxCell id="PsDFhm2bD0DmEI9ooElX-80" value="" style="endArrow=none;html=1;rounded=0;exitX=0.25;exitY=0;exitDx=0;exitDy=0;entryX=0.633;entryY=0.975;entryDx=0;entryDy=0;entryPerimeter=0;" edge="1" parent="1" source="PsDFhm2bD0DmEI9ooElX-53" target="PsDFhm2bD0DmEI9ooElX-77">
          <mxGeometry width="50" height="50" relative="1" as="geometry">
            <mxPoint x="940" y="470" as="sourcePoint" />
            <mxPoint x="870" y="450" as="targetPoint" />
          </mxGeometry>
        </mxCell>
        <mxCell id="PsDFhm2bD0DmEI9ooElX-82" value="1" style="text;html=1;align=center;verticalAlign=middle;resizable=0;points=[];autosize=1;strokeColor=none;fillColor=none;" vertex="1" parent="1">
          <mxGeometry x="520" y="290" width="30" height="30" as="geometry" />
        </mxCell>
        <mxCell id="PsDFhm2bD0DmEI9ooElX-83" value="1" style="text;html=1;align=center;verticalAlign=middle;resizable=0;points=[];autosize=1;strokeColor=none;fillColor=none;" vertex="1" parent="1">
          <mxGeometry x="840" y="535" width="30" height="30" as="geometry" />
        </mxCell>
        <mxCell id="PsDFhm2bD0DmEI9ooElX-84" value="ORDER" style="rounded=0;whiteSpace=wrap;html=1;" vertex="1" parent="1">
          <mxGeometry x="1030" y="255" width="120" height="60" as="geometry" />
        </mxCell>
        <mxCell id="PsDFhm2bD0DmEI9ooElX-85" value="ADMINISTRATOR" style="rounded=0;whiteSpace=wrap;html=1;" vertex="1" parent="1">
          <mxGeometry x="1400" y="120" width="120" height="60" as="geometry" />
        </mxCell>
        <mxCell id="PsDFhm2bD0DmEI9ooElX-86" value="BUYER" style="rounded=0;whiteSpace=wrap;html=1;" vertex="1" parent="1">
          <mxGeometry x="1400" y="245" width="120" height="60" as="geometry" />
        </mxCell>
        <mxCell id="PsDFhm2bD0DmEI9ooElX-87" value="SUPPLIER" style="rounded=0;whiteSpace=wrap;html=1;" vertex="1" parent="1">
          <mxGeometry x="1390" y="440" width="120" height="60" as="geometry" />
        </mxCell>
        <mxCell id="PsDFhm2bD0DmEI9ooElX-88" value="approve" style="rhombus;whiteSpace=wrap;html=1;" vertex="1" parent="1">
          <mxGeometry x="1187.5" y="125" width="80" height="50" as="geometry" />
        </mxCell>
        <mxCell id="PsDFhm2bD0DmEI9ooElX-89" value="orders" style="rhombus;whiteSpace=wrap;html=1;" vertex="1" parent="1">
          <mxGeometry x="1235" y="260" width="80" height="50" as="geometry" />
        </mxCell>
        <mxCell id="PsDFhm2bD0DmEI9ooElX-90" value="delivery" style="rhombus;whiteSpace=wrap;html=1;" vertex="1" parent="1">
          <mxGeometry x="1220" y="455" width="80" height="50" as="geometry" />
        </mxCell>
        <mxCell id="PsDFhm2bD0DmEI9ooElX-91" value="" style="endArrow=none;html=1;rounded=0;exitX=0.663;exitY=0.02;exitDx=0;exitDy=0;exitPerimeter=0;entryX=0;entryY=0.5;entryDx=0;entryDy=0;" edge="1" parent="1" source="PsDFhm2bD0DmEI9ooElX-84" target="PsDFhm2bD0DmEI9ooElX-88">
          <mxGeometry width="50" height="50" relative="1" as="geometry">
            <mxPoint x="1240" y="320" as="sourcePoint" />
            <mxPoint x="1290" y="270" as="targetPoint" />
          </mxGeometry>
        </mxCell>
        <mxCell id="PsDFhm2bD0DmEI9ooElX-92" value="" style="endArrow=none;html=1;rounded=0;exitX=1;exitY=0.5;exitDx=0;exitDy=0;entryX=0;entryY=0.5;entryDx=0;entryDy=0;" edge="1" parent="1" source="PsDFhm2bD0DmEI9ooElX-88" target="PsDFhm2bD0DmEI9ooElX-85">
          <mxGeometry width="50" height="50" relative="1" as="geometry">
            <mxPoint x="1330" y="140" as="sourcePoint" />
            <mxPoint x="1415" y="34" as="targetPoint" />
          </mxGeometry>
        </mxCell>
        <mxCell id="PsDFhm2bD0DmEI9ooElX-93" value="" style="endArrow=none;html=1;rounded=0;exitX=1;exitY=0.5;exitDx=0;exitDy=0;entryX=0;entryY=0.5;entryDx=0;entryDy=0;" edge="1" parent="1" source="PsDFhm2bD0DmEI9ooElX-84" target="PsDFhm2bD0DmEI9ooElX-89">
          <mxGeometry width="50" height="50" relative="1" as="geometry">
            <mxPoint x="1200" y="300" as="sourcePoint" />
            <mxPoint x="1285" y="194" as="targetPoint" />
          </mxGeometry>
        </mxCell>
        <mxCell id="PsDFhm2bD0DmEI9ooElX-94" value="" style="endArrow=none;html=1;rounded=0;exitX=1;exitY=0.5;exitDx=0;exitDy=0;entryX=0;entryY=0.5;entryDx=0;entryDy=0;" edge="1" parent="1" source="PsDFhm2bD0DmEI9ooElX-89" target="PsDFhm2bD0DmEI9ooElX-86">
          <mxGeometry width="50" height="50" relative="1" as="geometry">
            <mxPoint x="1240" y="320" as="sourcePoint" />
            <mxPoint x="1325" y="214" as="targetPoint" />
          </mxGeometry>
        </mxCell>
        <mxCell id="PsDFhm2bD0DmEI9ooElX-95" value="" style="endArrow=none;html=1;rounded=0;exitX=0.577;exitY=0.98;exitDx=0;exitDy=0;exitPerimeter=0;entryX=0;entryY=0.5;entryDx=0;entryDy=0;" edge="1" parent="1" source="PsDFhm2bD0DmEI9ooElX-84" target="PsDFhm2bD0DmEI9ooElX-90">
          <mxGeometry width="50" height="50" relative="1" as="geometry">
            <mxPoint x="1085.6" y="362.20000000000005" as="sourcePoint" />
            <mxPoint x="1195" y="330" as="targetPoint" />
          </mxGeometry>
        </mxCell>
        <mxCell id="PsDFhm2bD0DmEI9ooElX-96" value="" style="endArrow=none;html=1;rounded=0;exitX=1;exitY=0.5;exitDx=0;exitDy=0;entryX=0;entryY=0.5;entryDx=0;entryDy=0;" edge="1" parent="1" source="PsDFhm2bD0DmEI9ooElX-90" target="PsDFhm2bD0DmEI9ooElX-87">
          <mxGeometry width="50" height="50" relative="1" as="geometry">
            <mxPoint x="1210" y="340" as="sourcePoint" />
            <mxPoint x="1295" y="234" as="targetPoint" />
          </mxGeometry>
        </mxCell>
        <mxCell id="PsDFhm2bD0DmEI9ooElX-97" value="" style="endArrow=none;html=1;rounded=0;exitX=0.75;exitY=0;exitDx=0;exitDy=0;entryX=0.082;entryY=0.656;entryDx=0;entryDy=0;entryPerimeter=0;" edge="1" parent="1" source="PsDFhm2bD0DmEI9ooElX-84" target="PsDFhm2bD0DmEI9ooElX-88">
          <mxGeometry width="50" height="50" relative="1" as="geometry">
            <mxPoint x="1130" y="180" as="sourcePoint" />
            <mxPoint x="1215" y="74" as="targetPoint" />
          </mxGeometry>
        </mxCell>
        <mxCell id="PsDFhm2bD0DmEI9ooElX-98" value="" style="endArrow=none;html=1;rounded=0;exitX=0.902;exitY=0.368;exitDx=0;exitDy=0;entryX=-0.007;entryY=0.39;entryDx=0;entryDy=0;exitPerimeter=0;entryPerimeter=0;" edge="1" parent="1" source="PsDFhm2bD0DmEI9ooElX-88" target="PsDFhm2bD0DmEI9ooElX-85">
          <mxGeometry width="50" height="50" relative="1" as="geometry">
            <mxPoint x="1320" y="120" as="sourcePoint" />
            <mxPoint x="1445" y="120" as="targetPoint" />
          </mxGeometry>
        </mxCell>
        <mxCell id="PsDFhm2bD0DmEI9ooElX-99" value="" style="endArrow=none;html=1;rounded=0;exitX=1.01;exitY=0.393;exitDx=0;exitDy=0;entryX=0.172;entryY=0.308;entryDx=0;entryDy=0;entryPerimeter=0;exitPerimeter=0;" edge="1" parent="1" source="PsDFhm2bD0DmEI9ooElX-84" target="PsDFhm2bD0DmEI9ooElX-89">
          <mxGeometry width="50" height="50" relative="1" as="geometry">
            <mxPoint x="1210" y="240" as="sourcePoint" />
            <mxPoint x="1295" y="240" as="targetPoint" />
          </mxGeometry>
        </mxCell>
        <mxCell id="PsDFhm2bD0DmEI9ooElX-100" value="" style="endArrow=none;html=1;rounded=0;exitX=0.677;exitY=1.033;exitDx=0;exitDy=0;exitPerimeter=0;entryX=0.092;entryY=0.372;entryDx=0;entryDy=0;entryPerimeter=0;" edge="1" parent="1" source="PsDFhm2bD0DmEI9ooElX-84" target="PsDFhm2bD0DmEI9ooElX-90">
          <mxGeometry width="50" height="50" relative="1" as="geometry">
            <mxPoint x="1170" y="350" as="sourcePoint" />
            <mxPoint x="1266" y="461" as="targetPoint" />
          </mxGeometry>
        </mxCell>
        <mxCell id="PsDFhm2bD0DmEI9ooElX-101" value="" style="endArrow=none;html=1;rounded=0;exitX=0.903;exitY=0.644;exitDx=0;exitDy=0;entryX=0;entryY=0.75;entryDx=0;entryDy=0;exitPerimeter=0;" edge="1" parent="1" source="PsDFhm2bD0DmEI9ooElX-90" target="PsDFhm2bD0DmEI9ooElX-87">
          <mxGeometry width="50" height="50" relative="1" as="geometry">
            <mxPoint x="1370" y="380" as="sourcePoint" />
            <mxPoint x="1495" y="415" as="targetPoint" />
          </mxGeometry>
        </mxCell>
        <mxCell id="PsDFhm2bD0DmEI9ooElX-102" value="М" style="text;html=1;align=center;verticalAlign=middle;resizable=0;points=[];autosize=1;strokeColor=none;fillColor=none;" vertex="1" parent="1">
          <mxGeometry x="1080" y="225" width="30" height="30" as="geometry" />
        </mxCell>
        <mxCell id="PsDFhm2bD0DmEI9ooElX-104" value="1" style="text;html=1;align=center;verticalAlign=middle;resizable=0;points=[];autosize=1;strokeColor=none;fillColor=none;" vertex="1" parent="1">
          <mxGeometry x="1370" y="110" width="30" height="30" as="geometry" />
        </mxCell>
        <mxCell id="PsDFhm2bD0DmEI9ooElX-105" value="М" style="text;html=1;align=center;verticalAlign=middle;resizable=0;points=[];autosize=1;strokeColor=none;fillColor=none;" vertex="1" parent="1">
          <mxGeometry x="1150" y="250" width="30" height="30" as="geometry" />
        </mxCell>
        <mxCell id="PsDFhm2bD0DmEI9ooElX-106" value="1" style="text;html=1;align=center;verticalAlign=middle;resizable=0;points=[];autosize=1;strokeColor=none;fillColor=none;" vertex="1" parent="1">
          <mxGeometry x="1370" y="250" width="30" height="30" as="geometry" />
        </mxCell>
        <mxCell id="PsDFhm2bD0DmEI9ooElX-107" value="1" style="text;html=1;align=center;verticalAlign=middle;resizable=0;points=[];autosize=1;strokeColor=none;fillColor=none;" vertex="1" parent="1">
          <mxGeometry x="1370" y="440" width="30" height="30" as="geometry" />
        </mxCell>
        <mxCell id="PsDFhm2bD0DmEI9ooElX-108" value="М" style="text;html=1;align=center;verticalAlign=middle;resizable=0;points=[];autosize=1;strokeColor=none;fillColor=none;" vertex="1" parent="1">
          <mxGeometry x="1075" y="310" width="30" height="30" as="geometry" />
        </mxCell>
        <mxCell id="PsDFhm2bD0DmEI9ooElX-109" value="&lt;u&gt;id&lt;/u&gt;" style="ellipse;whiteSpace=wrap;html=1;" vertex="1" parent="1">
          <mxGeometry x="1440" y="40" width="70" height="50" as="geometry" />
        </mxCell>
        <mxCell id="PsDFhm2bD0DmEI9ooElX-110" value="name" style="ellipse;whiteSpace=wrap;html=1;" vertex="1" parent="1">
          <mxGeometry x="1540" y="60" width="70" height="50" as="geometry" />
        </mxCell>
        <mxCell id="PsDFhm2bD0DmEI9ooElX-111" value="contact" style="ellipse;whiteSpace=wrap;html=1;" vertex="1" parent="1">
          <mxGeometry x="1560" y="140" width="70" height="50" as="geometry" />
        </mxCell>
        <mxCell id="PsDFhm2bD0DmEI9ooElX-112" value="&lt;u&gt;id&lt;/u&gt;" style="ellipse;whiteSpace=wrap;html=1;" vertex="1" parent="1">
          <mxGeometry x="1550" y="215" width="70" height="50" as="geometry" />
        </mxCell>
        <mxCell id="PsDFhm2bD0DmEI9ooElX-113" value="name" style="ellipse;whiteSpace=wrap;html=1;" vertex="1" parent="1">
          <mxGeometry x="1550" y="330" width="70" height="50" as="geometry" />
        </mxCell>
        <mxCell id="PsDFhm2bD0DmEI9ooElX-114" value="contact" style="ellipse;whiteSpace=wrap;html=1;" vertex="1" parent="1">
          <mxGeometry x="1470" y="340" width="70" height="50" as="geometry" />
        </mxCell>
        <mxCell id="PsDFhm2bD0DmEI9ooElX-115" value="&lt;u&gt;id&lt;/u&gt;" style="ellipse;whiteSpace=wrap;html=1;" vertex="1" parent="1">
          <mxGeometry x="1550" y="430" width="70" height="50" as="geometry" />
        </mxCell>
        <mxCell id="PsDFhm2bD0DmEI9ooElX-116" value="name" style="ellipse;whiteSpace=wrap;html=1;" vertex="1" parent="1">
          <mxGeometry x="1540" y="525" width="70" height="50" as="geometry" />
        </mxCell>
        <mxCell id="PsDFhm2bD0DmEI9ooElX-117" value="contact" style="ellipse;whiteSpace=wrap;html=1;" vertex="1" parent="1">
          <mxGeometry x="1450" y="560" width="70" height="50" as="geometry" />
        </mxCell>
        <mxCell id="PsDFhm2bD0DmEI9ooElX-118" value="" style="endArrow=none;html=1;rounded=0;entryX=0.5;entryY=1;entryDx=0;entryDy=0;" edge="1" parent="1" target="PsDFhm2bD0DmEI9ooElX-109">
          <mxGeometry width="50" height="50" relative="1" as="geometry">
            <mxPoint x="1475" y="120" as="sourcePoint" />
            <mxPoint x="1410" y="60" as="targetPoint" />
          </mxGeometry>
        </mxCell>
        <mxCell id="PsDFhm2bD0DmEI9ooElX-119" value="" style="endArrow=none;html=1;rounded=0;entryX=0;entryY=1;entryDx=0;entryDy=0;exitX=1;exitY=0.25;exitDx=0;exitDy=0;" edge="1" parent="1" source="PsDFhm2bD0DmEI9ooElX-85" target="PsDFhm2bD0DmEI9ooElX-110">
          <mxGeometry width="50" height="50" relative="1" as="geometry">
            <mxPoint x="1550" y="120" as="sourcePoint" />
            <mxPoint x="1550" y="90" as="targetPoint" />
          </mxGeometry>
        </mxCell>
        <mxCell id="PsDFhm2bD0DmEI9ooElX-120" value="" style="endArrow=none;html=1;rounded=0;entryX=1;entryY=0.75;entryDx=0;entryDy=0;exitX=0;exitY=0.5;exitDx=0;exitDy=0;" edge="1" parent="1" source="PsDFhm2bD0DmEI9ooElX-111" target="PsDFhm2bD0DmEI9ooElX-85">
          <mxGeometry width="50" height="50" relative="1" as="geometry">
            <mxPoint x="1540" y="170" as="sourcePoint" />
            <mxPoint x="1540" y="140" as="targetPoint" />
          </mxGeometry>
        </mxCell>
        <mxCell id="PsDFhm2bD0DmEI9ooElX-121" value="" style="endArrow=none;html=1;rounded=0;entryX=1;entryY=0.25;entryDx=0;entryDy=0;exitX=0;exitY=0.5;exitDx=0;exitDy=0;" edge="1" parent="1" source="PsDFhm2bD0DmEI9ooElX-112" target="PsDFhm2bD0DmEI9ooElX-86">
          <mxGeometry width="50" height="50" relative="1" as="geometry">
            <mxPoint x="1540" y="260" as="sourcePoint" />
            <mxPoint x="1540" y="230" as="targetPoint" />
          </mxGeometry>
        </mxCell>
        <mxCell id="PsDFhm2bD0DmEI9ooElX-122" value="" style="endArrow=none;html=1;rounded=0;entryX=1;entryY=0.75;entryDx=0;entryDy=0;exitX=0;exitY=0;exitDx=0;exitDy=0;" edge="1" parent="1" source="PsDFhm2bD0DmEI9ooElX-113" target="PsDFhm2bD0DmEI9ooElX-86">
          <mxGeometry width="50" height="50" relative="1" as="geometry">
            <mxPoint x="1540" y="320" as="sourcePoint" />
            <mxPoint x="1540" y="290" as="targetPoint" />
          </mxGeometry>
        </mxCell>
        <mxCell id="PsDFhm2bD0DmEI9ooElX-123" value="" style="endArrow=none;html=1;rounded=0;exitX=0.5;exitY=0;exitDx=0;exitDy=0;entryX=0.75;entryY=1;entryDx=0;entryDy=0;" edge="1" parent="1" source="PsDFhm2bD0DmEI9ooElX-114" target="PsDFhm2bD0DmEI9ooElX-86">
          <mxGeometry width="50" height="50" relative="1" as="geometry">
            <mxPoint x="1500" y="330" as="sourcePoint" />
            <mxPoint x="1480" y="310" as="targetPoint" />
          </mxGeometry>
        </mxCell>
        <mxCell id="PsDFhm2bD0DmEI9ooElX-124" value="" style="endArrow=none;html=1;rounded=0;entryX=0;entryY=0.5;entryDx=0;entryDy=0;exitX=1;exitY=0.25;exitDx=0;exitDy=0;" edge="1" parent="1" source="PsDFhm2bD0DmEI9ooElX-87" target="PsDFhm2bD0DmEI9ooElX-115">
          <mxGeometry width="50" height="50" relative="1" as="geometry">
            <mxPoint x="1540" y="460" as="sourcePoint" />
            <mxPoint x="1540" y="430" as="targetPoint" />
          </mxGeometry>
        </mxCell>
        <mxCell id="PsDFhm2bD0DmEI9ooElX-125" value="" style="endArrow=none;html=1;rounded=0;entryX=0.947;entryY=0.997;entryDx=0;entryDy=0;exitX=0;exitY=0;exitDx=0;exitDy=0;entryPerimeter=0;" edge="1" parent="1" source="PsDFhm2bD0DmEI9ooElX-116" target="PsDFhm2bD0DmEI9ooElX-87">
          <mxGeometry width="50" height="50" relative="1" as="geometry">
            <mxPoint x="1540" y="500" as="sourcePoint" />
            <mxPoint x="1540" y="470" as="targetPoint" />
          </mxGeometry>
        </mxCell>
        <mxCell id="PsDFhm2bD0DmEI9ooElX-126" value="" style="endArrow=none;html=1;rounded=0;exitX=0.5;exitY=0;exitDx=0;exitDy=0;entryX=0.75;entryY=1;entryDx=0;entryDy=0;" edge="1" parent="1" source="PsDFhm2bD0DmEI9ooElX-117" target="PsDFhm2bD0DmEI9ooElX-87">
          <mxGeometry width="50" height="50" relative="1" as="geometry">
            <mxPoint x="1480" y="530" as="sourcePoint" />
            <mxPoint x="1480" y="510" as="targetPoint" />
          </mxGeometry>
        </mxCell>
        <mxCell id="PsDFhm2bD0DmEI9ooElX-127" value="address" style="ellipse;whiteSpace=wrap;html=1;" vertex="1" parent="1">
          <mxGeometry x="1600" y="270" width="70" height="50" as="geometry" />
        </mxCell>
        <mxCell id="PsDFhm2bD0DmEI9ooElX-129" value="" style="endArrow=none;html=1;rounded=0;entryX=1;entryY=0.5;entryDx=0;entryDy=0;exitX=0;exitY=0.5;exitDx=0;exitDy=0;" edge="1" parent="1" source="PsDFhm2bD0DmEI9ooElX-127" target="PsDFhm2bD0DmEI9ooElX-86">
          <mxGeometry width="50" height="50" relative="1" as="geometry">
            <mxPoint x="1570" y="290" as="sourcePoint" />
            <mxPoint x="1530" y="248" as="targetPoint" />
          </mxGeometry>
        </mxCell>
        <mxCell id="PsDFhm2bD0DmEI9ooElX-130" value="timestamp_of_sending/buyer" style="ellipse;whiteSpace=wrap;html=1;" vertex="1" parent="1">
          <mxGeometry x="990" y="135" width="180" height="40" as="geometry" />
        </mxCell>
        <mxCell id="PsDFhm2bD0DmEI9ooElX-131" value="" style="endArrow=none;html=1;rounded=0;exitX=0.344;exitY=0.017;exitDx=0;exitDy=0;entryX=0.5;entryY=1;entryDx=0;entryDy=0;exitPerimeter=0;" edge="1" parent="1" source="PsDFhm2bD0DmEI9ooElX-84" target="PsDFhm2bD0DmEI9ooElX-130">
          <mxGeometry width="50" height="50" relative="1" as="geometry">
            <mxPoint x="1420" y="320" as="sourcePoint" />
            <mxPoint x="1470" y="270" as="targetPoint" />
          </mxGeometry>
        </mxCell>
        <mxCell id="PsDFhm2bD0DmEI9ooElX-132" value="timestamp_of_approval" style="ellipse;whiteSpace=wrap;html=1;" vertex="1" parent="1">
          <mxGeometry x="935" y="180" width="130" height="40" as="geometry" />
        </mxCell>
        <mxCell id="PsDFhm2bD0DmEI9ooElX-134" value="" style="endArrow=none;html=1;rounded=0;entryX=0.5;entryY=1;entryDx=0;entryDy=0;exitX=0.086;exitY=0.017;exitDx=0;exitDy=0;exitPerimeter=0;" edge="1" parent="1" source="PsDFhm2bD0DmEI9ooElX-84" target="PsDFhm2bD0DmEI9ooElX-132">
          <mxGeometry width="50" height="50" relative="1" as="geometry">
            <mxPoint x="1140" y="160" as="sourcePoint" />
            <mxPoint x="1190" y="110" as="targetPoint" />
          </mxGeometry>
        </mxCell>
        <mxCell id="PsDFhm2bD0DmEI9ooElX-135" value="timestamp_of_arrival/buyer" style="ellipse;whiteSpace=wrap;html=1;" vertex="1" parent="1">
          <mxGeometry x="1180" y="365" width="160" height="40" as="geometry" />
        </mxCell>
        <mxCell id="PsDFhm2bD0DmEI9ooElX-136" value="" style="endArrow=none;html=1;rounded=0;exitX=0;exitY=0.5;exitDx=0;exitDy=0;entryX=0.862;entryY=1.022;entryDx=0;entryDy=0;entryPerimeter=0;" edge="1" parent="1" source="PsDFhm2bD0DmEI9ooElX-135" target="PsDFhm2bD0DmEI9ooElX-84">
          <mxGeometry width="50" height="50" relative="1" as="geometry">
            <mxPoint x="1420" y="320" as="sourcePoint" />
            <mxPoint x="1470" y="270" as="targetPoint" />
          </mxGeometry>
        </mxCell>
        <mxCell id="PsDFhm2bD0DmEI9ooElX-137" value="review (rating1-5)/buyer" style="ellipse;whiteSpace=wrap;html=1;" vertex="1" parent="1">
          <mxGeometry x="1160" y="315" width="100" height="40" as="geometry" />
        </mxCell>
        <mxCell id="PsDFhm2bD0DmEI9ooElX-138" value="review (rating1-5)/supplier" style="ellipse;whiteSpace=wrap;html=1;" vertex="1" parent="1">
          <mxGeometry x="990" y="380" width="100" height="40" as="geometry" />
        </mxCell>
        <mxCell id="PsDFhm2bD0DmEI9ooElX-139" value="timestamp_of_delivery/supplier" style="ellipse;whiteSpace=wrap;html=1;" vertex="1" parent="1">
          <mxGeometry x="1002.5" y="435" width="185" height="40" as="geometry" />
        </mxCell>
        <mxCell id="PsDFhm2bD0DmEI9ooElX-140" value="" style="endArrow=none;html=1;rounded=0;exitX=0.5;exitY=0;exitDx=0;exitDy=0;entryX=1;entryY=0.75;entryDx=0;entryDy=0;" edge="1" parent="1" source="PsDFhm2bD0DmEI9ooElX-137" target="PsDFhm2bD0DmEI9ooElX-84">
          <mxGeometry width="50" height="50" relative="1" as="geometry">
            <mxPoint x="1235" y="380" as="sourcePoint" />
            <mxPoint x="1285" y="330" as="targetPoint" />
          </mxGeometry>
        </mxCell>
        <mxCell id="PsDFhm2bD0DmEI9ooElX-141" value="" style="endArrow=none;html=1;rounded=0;exitX=0.338;exitY=1.004;exitDx=0;exitDy=0;entryX=0.627;entryY=-0.007;entryDx=0;entryDy=0;entryPerimeter=0;exitPerimeter=0;" edge="1" parent="1" source="PsDFhm2bD0DmEI9ooElX-84" target="PsDFhm2bD0DmEI9ooElX-139">
          <mxGeometry width="50" height="50" relative="1" as="geometry">
            <mxPoint x="1250" y="380" as="sourcePoint" />
            <mxPoint x="1295" y="363" as="targetPoint" />
          </mxGeometry>
        </mxCell>
        <mxCell id="PsDFhm2bD0DmEI9ooElX-142" value="" style="endArrow=none;html=1;rounded=0;exitX=0.302;exitY=0.045;exitDx=0;exitDy=0;entryX=0.151;entryY=1.004;entryDx=0;entryDy=0;exitPerimeter=0;entryPerimeter=0;" edge="1" parent="1" source="PsDFhm2bD0DmEI9ooElX-138" target="PsDFhm2bD0DmEI9ooElX-84">
          <mxGeometry width="50" height="50" relative="1" as="geometry">
            <mxPoint x="1200" y="460" as="sourcePoint" />
            <mxPoint x="1245" y="443" as="targetPoint" />
          </mxGeometry>
        </mxCell>
        <mxCell id="PsDFhm2bD0DmEI9ooElX-143" value="comment/buyer" style="ellipse;whiteSpace=wrap;html=1;" vertex="1" parent="1">
          <mxGeometry x="890" y="280" width="105" height="35" as="geometry" />
        </mxCell>
        <mxCell id="PsDFhm2bD0DmEI9ooElX-144" value="comment/supplier" style="ellipse;whiteSpace=wrap;html=1;" vertex="1" parent="1">
          <mxGeometry x="900" y="330" width="110" height="35" as="geometry" />
        </mxCell>
        <mxCell id="PsDFhm2bD0DmEI9ooElX-145" value="" style="endArrow=none;html=1;rounded=0;exitX=0.771;exitY=0.091;exitDx=0;exitDy=0;exitPerimeter=0;entryX=0;entryY=1;entryDx=0;entryDy=0;" edge="1" parent="1" source="PsDFhm2bD0DmEI9ooElX-144" target="PsDFhm2bD0DmEI9ooElX-84">
          <mxGeometry width="50" height="50" relative="1" as="geometry">
            <mxPoint x="1120" y="450" as="sourcePoint" />
            <mxPoint x="1170" y="400" as="targetPoint" />
            <Array as="points" />
          </mxGeometry>
        </mxCell>
        <mxCell id="PsDFhm2bD0DmEI9ooElX-146" value="" style="endArrow=none;html=1;rounded=0;entryX=1;entryY=0.5;entryDx=0;entryDy=0;" edge="1" parent="1" source="PsDFhm2bD0DmEI9ooElX-84" target="PsDFhm2bD0DmEI9ooElX-143">
          <mxGeometry width="50" height="50" relative="1" as="geometry">
            <mxPoint x="1230" y="260" as="sourcePoint" />
            <mxPoint x="1243" y="239" as="targetPoint" />
            <Array as="points" />
          </mxGeometry>
        </mxCell>
        <mxCell id="PsDFhm2bD0DmEI9ooElX-147" value="ordered" style="rhombus;whiteSpace=wrap;html=1;" vertex="1" parent="1">
          <mxGeometry x="790" y="195" width="70" height="50" as="geometry" />
        </mxCell>
        <mxCell id="PsDFhm2bD0DmEI9ooElX-148" value="" style="endArrow=none;html=1;rounded=0;exitX=0;exitY=0.5;exitDx=0;exitDy=0;entryX=1.005;entryY=0.163;entryDx=0;entryDy=0;entryPerimeter=0;" edge="1" parent="1" source="PsDFhm2bD0DmEI9ooElX-147" target="PsDFhm2bD0DmEI9ooElX-1">
          <mxGeometry width="50" height="50" relative="1" as="geometry">
            <mxPoint x="770" y="320" as="sourcePoint" />
            <mxPoint x="820" y="270" as="targetPoint" />
          </mxGeometry>
        </mxCell>
        <mxCell id="PsDFhm2bD0DmEI9ooElX-149" value="" style="endArrow=none;html=1;rounded=0;entryX=1;entryY=0.5;entryDx=0;entryDy=0;exitX=0;exitY=0.25;exitDx=0;exitDy=0;" edge="1" parent="1" source="PsDFhm2bD0DmEI9ooElX-84" target="PsDFhm2bD0DmEI9ooElX-147">
          <mxGeometry width="50" height="50" relative="1" as="geometry">
            <mxPoint x="770" y="320" as="sourcePoint" />
            <mxPoint x="820" y="270" as="targetPoint" />
          </mxGeometry>
        </mxCell>
        <mxCell id="PsDFhm2bD0DmEI9ooElX-151" value="М" style="text;html=1;align=center;verticalAlign=middle;resizable=0;points=[];autosize=1;strokeColor=none;fillColor=none;" vertex="1" parent="1">
          <mxGeometry x="520" y="245" width="30" height="30" as="geometry" />
        </mxCell>
        <mxCell id="PsDFhm2bD0DmEI9ooElX-152" value="N" style="text;html=1;align=center;verticalAlign=middle;resizable=0;points=[];autosize=1;strokeColor=none;fillColor=none;" vertex="1" parent="1">
          <mxGeometry x="1000" y="265" width="30" height="30" as="geometry" />
        </mxCell>
        <mxCell id="PsDFhm2bD0DmEI9ooElX-154" value="" style="endArrow=none;html=1;rounded=0;entryX=1;entryY=0;entryDx=0;entryDy=0;exitX=0;exitY=0;exitDx=0;exitDy=0;" edge="1" parent="1" source="PsDFhm2bD0DmEI9ooElX-84" target="PsDFhm2bD0DmEI9ooElX-147">
          <mxGeometry width="50" height="50" relative="1" as="geometry">
            <mxPoint x="960" y="200" as="sourcePoint" />
            <mxPoint x="810" y="145" as="targetPoint" />
          </mxGeometry>
        </mxCell>
        <mxCell id="gjAOVE41NfmY906gdXXH-3" value="storage_temperature" style="ellipse;whiteSpace=wrap;html=1;align=center;" vertex="1" parent="1">
          <mxGeometry x="160" y="295" width="130" height="45" as="geometry" />
        </mxCell>
        <mxCell id="gjAOVE41NfmY906gdXXH-5" value="" style="endArrow=none;html=1;rounded=0;exitX=1;exitY=0.5;exitDx=0;exitDy=0;entryX=0;entryY=0.629;entryDx=0;entryDy=0;entryPerimeter=0;" edge="1" parent="1" source="gjAOVE41NfmY906gdXXH-3" target="PsDFhm2bD0DmEI9ooElX-1">
          <mxGeometry width="50" height="50" relative="1" as="geometry">
            <mxPoint x="310" y="310" as="sourcePoint" />
            <mxPoint x="350" y="330" as="targetPoint" />
          </mxGeometry>
        </mxCell>
      </root>
    </mxGraphModel>
  </diagram>
</mxfile>
